<svg width="1547" height="257" viewBox="0 0 1547 257" fill="none" xmlns="http://www.w3.org/2000/svg">
<mask id="path-1-outside-1_2308_119" maskUnits="userSpaceOnUse" x="0" y="0" width="77" height="115" fill="black">
<rect fill="white" width="77" height="115"/>
<path fill-rule="evenodd" clip-rule="evenodd" d="M40.5486 7.13354C39.3851 5.62215 37.1058 5.62216 35.9424 7.13354L6.60871 45.2391C5.13747 47.1503 6.49993 49.9185 8.91182 49.9185H26.6212V102.964C26.6212 106.174 29.2238 108.777 32.4341 108.777H44.06C47.2704 108.777 49.8729 106.174 49.8729 102.964V49.9185H67.5791C69.991 49.9185 71.3535 47.1503 69.8822 45.2391L40.5486 7.13354Z"/>
</mask>
<path fill-rule="evenodd" clip-rule="evenodd" d="M40.5486 7.13354C39.3851 5.62215 37.1058 5.62216 35.9424 7.13354L6.60871 45.2391C5.13747 47.1503 6.49993 49.9185 8.91182 49.9185H26.6212V102.964C26.6212 106.174 29.2238 108.777 32.4341 108.777H44.06C47.2704 108.777 49.8729 106.174 49.8729 102.964V49.9185H67.5791C69.991 49.9185 71.3535 47.1503 69.8822 45.2391L40.5486 7.13354Z" fill="#397FF3"/>
<path d="M35.9424 7.13354L31.3362 3.58769L31.3362 3.58769L35.9424 7.13354ZM40.5486 7.13354L45.1548 3.58769L45.1548 3.58768L40.5486 7.13354ZM6.60871 45.2391L11.2149 48.7849L11.2149 48.7849L6.60871 45.2391ZM26.6212 49.9185H32.4341V44.1055H26.6212V49.9185ZM49.8729 49.9185V44.1055H44.06V49.9185H49.8729ZM69.8822 45.2391L65.276 48.7849L65.276 48.7849L69.8822 45.2391ZM40.5486 10.6794C39.3851 12.1908 37.1058 12.1908 35.9424 10.6794L45.1548 3.58768C41.6644 -0.946454 34.8266 -0.946453 31.3362 3.58769L40.5486 10.6794ZM11.2149 48.7849L40.5486 10.6794L31.3362 3.58769L2.00252 41.6932L11.2149 48.7849ZM8.91182 44.1055C11.3237 44.1055 12.6862 46.8737 11.2149 48.7849L2.00252 41.6932C-2.41122 47.4269 1.67619 55.7314 8.91182 55.7314V44.1055ZM26.6212 44.1055H8.91182V55.7314H26.6212V44.1055ZM32.4341 102.964V49.9185H20.8083V102.964H32.4341ZM32.4341 102.964L32.4341 102.964H20.8083C20.8083 109.385 26.0134 114.59 32.4341 114.59V102.964ZM44.06 102.964H32.4341V114.59H44.06V102.964ZM44.06 102.964L44.06 102.964V114.59C50.4807 114.59 55.6858 109.385 55.6858 102.964H44.06ZM44.06 49.9185V102.964H55.6858V49.9185H44.06ZM67.5791 44.1055H49.8729V55.7314H67.5791V44.1055ZM65.276 48.7849C63.8048 46.8737 65.1672 44.1055 67.5791 44.1055V55.7314C74.8148 55.7314 78.9021 47.4268 74.4884 41.6932L65.276 48.7849ZM35.9424 10.6794L65.276 48.7849L74.4884 41.6932L45.1548 3.58769L35.9424 10.6794Z" fill="black" mask="url(#path-1-outside-1_2308_119)"/>
<path fill-rule="evenodd" clip-rule="evenodd" d="M348.983 20.1328C348.288 20.1328 347.69 20.6254 347.557 21.3079L303.073 249.465C302.898 250.362 303.585 251.196 304.5 251.196H446.605C484.874 249.743 563.154 224.166 570.13 133.485C577.105 42.8032 509.094 20.1328 474.217 20.1328H348.983ZM397.484 191.614C396.577 191.614 395.892 190.793 396.054 189.901L415.871 80.9085C415.996 80.2175 416.598 79.7152 417.3 79.7152H456.778C469.857 79.7152 495.434 90.4691 493.109 133.485C490.784 176.5 461.138 190.161 446.605 191.614H397.484Z" fill="#3C80F5"/>
<path fill-rule="evenodd" clip-rule="evenodd" d="M155.318 20.1328C154.813 20.1328 154.345 20.3942 154.081 20.8235L13.4555 248.981C12.8588 249.949 13.5553 251.196 14.6926 251.196H88.2784C88.7941 251.196 89.2713 250.923 89.5321 250.478L113.395 209.771C113.656 209.326 114.133 209.053 114.649 209.053H202.692C203.399 209.053 204.004 209.562 204.124 210.259L210.974 249.99C211.094 250.687 211.699 251.196 212.406 251.196H286.396C287.324 251.196 288.014 250.337 287.815 249.431L237.592 21.2736C237.445 20.6074 236.855 20.1328 236.172 20.1328H155.318ZM152.667 153.83C151.548 153.83 150.849 152.617 151.41 151.649L180.064 102.155C180.75 100.97 182.544 101.304 182.757 102.656L190.572 152.15C190.711 153.032 190.029 153.83 189.136 153.83H152.667Z" fill="#3C80F5"/>
<path fill-rule="evenodd" clip-rule="evenodd" d="M1342.98 20.1328C1342.29 20.1328 1341.7 20.6209 1341.56 21.2993L1295.64 249.456C1295.46 250.356 1296.15 251.196 1297.07 251.196H1371.14C1371.83 251.196 1372.42 250.721 1372.56 250.055L1385.14 192.756C1385.29 192.089 1385.88 191.614 1386.56 191.614H1447.88C1477.91 190.645 1539.14 171.85 1543.79 104.42C1548.15 33.2119 1481.3 20.1328 1466.77 20.1328H1342.98ZM1401.67 134.938C1400.76 134.938 1400.08 134.114 1400.24 133.221L1409.88 80.9052C1410 80.2157 1410.61 79.7152 1411.31 79.7152H1436.25C1445.46 80.1996 1463.28 86.4001 1460.96 107.327C1458.63 128.253 1445.46 134.454 1439.16 134.938H1401.67Z" fill="white"/>
<path fill-rule="evenodd" clip-rule="evenodd" d="M1093.29 20.1328L1047.14 249.456C1046.96 250.356 1047.65 251.196 1048.56 251.196H1122.64C1123.32 251.196 1123.91 250.721 1124.06 250.055L1136.64 192.756C1136.79 192.089 1137.38 191.614 1138.06 191.614H1154.95C1155.46 191.614 1155.94 191.888 1156.2 192.333L1190.24 250.477C1190.5 250.923 1190.98 251.196 1191.49 251.196H1266.6C1267.72 251.196 1268.42 249.978 1267.85 249.009L1235.21 193.236C1234.73 192.415 1235.15 191.361 1236.05 191.066C1255.49 184.724 1291.91 159.635 1295.29 104.42C1299.65 33.2119 1232.8 20.1328 1218.27 20.1328H1093.29ZM1153.17 134.938C1152.26 134.938 1151.57 134.114 1151.74 133.221L1161.38 80.9052C1161.5 80.2157 1162.1 79.7152 1162.8 79.7152H1187.75C1196.96 80.1996 1214.78 86.4001 1212.46 107.327C1210.13 128.253 1196.96 134.454 1190.66 134.938H1153.17Z" fill="white"/>
<path d="M872.146 20.1328C871.45 20.1328 870.852 20.6254 870.719 21.3079L826.236 249.465C826.061 250.362 826.748 251.196 827.662 251.196H1015.07C1015.77 251.196 1016.37 250.704 1016.5 250.021L1027.56 193.345C1027.73 192.448 1027.05 191.614 1026.13 191.614H916.318C915.401 191.614 914.713 190.775 914.893 189.876L920.125 163.718C920.261 163.038 920.857 162.549 921.55 162.549H1015.08C1015.77 162.549 1016.37 162.06 1016.51 161.381L1027.55 106.158C1027.73 105.259 1027.04 104.42 1026.12 104.42H935.17C934.266 104.42 933.581 103.604 933.738 102.714L937.585 80.9159C937.708 80.2215 938.311 79.7152 939.016 79.7152H1045.59C1046.29 79.7152 1046.89 79.2227 1047.02 78.5403L1058.08 21.8644C1058.25 20.967 1057.57 20.1328 1056.65 20.1328H872.146Z" fill="white"/>
<path d="M714.707 250.304C713.848 251.671 711.735 250.829 712.051 249.246L745.92 79.9672C745.954 79.8005 746.016 79.641 746.105 79.4958L781.877 20.8295C782.141 20.3968 782.611 20.1328 783.117 20.1328H856.693C857.836 20.1328 858.532 21.3914 857.924 22.3592L714.707 250.304Z" fill="white"/>
<path d="M605.373 20.1328C604.441 20.1328 603.75 20.9979 603.956 21.907L655.614 250.064C655.764 250.726 656.353 251.196 657.032 251.196H667.744C668.443 251.196 669.043 250.698 669.172 250.011L699.414 88.7204C699.449 88.5317 699.447 88.3379 699.407 88.1502L685.18 21.2836C685.037 20.6126 684.445 20.1328 683.759 20.1328H605.373Z" fill="white"/>
<path d="M1093.29 20.1328L1047.14 249.456C1046.96 250.356 1047.65 251.196 1048.56 251.196H1122.64C1123.32 251.196 1123.91 250.721 1124.06 250.055L1136.64 192.756C1136.79 192.089 1137.38 191.614 1138.06 191.614H1154.95C1155.46 191.614 1155.94 191.888 1156.2 192.333L1190.24 250.477C1190.5 250.923 1190.98 251.196 1191.49 251.196H1266.6C1267.72 251.196 1268.42 249.978 1267.85 249.009L1235.21 193.236C1234.73 192.415 1235.15 191.361 1236.05 191.066C1255.49 184.724 1291.91 159.635 1295.29 104.42C1299.65 33.2119 1232.8 20.1328 1218.27 20.1328M1093.29 20.1328C1130.11 20.1328 1206.64 20.1328 1218.27 20.1328M1093.29 20.1328H1218.27M446.605 251.196H304.5C303.585 251.196 302.898 250.362 303.073 249.465L347.557 21.3079C347.69 20.6254 348.288 20.1328 348.983 20.1328H474.217C509.094 20.1328 577.105 42.8032 570.13 133.485C563.154 224.166 484.874 249.743 446.605 251.196ZM446.605 191.614H397.484C396.577 191.614 395.892 190.793 396.054 189.901L415.871 80.9085C415.996 80.2175 416.598 79.7152 417.3 79.7152H456.778C469.857 79.7152 495.434 90.4691 493.109 133.485C490.784 176.5 461.138 190.161 446.605 191.614ZM1190.66 134.938H1153.17C1152.26 134.938 1151.57 134.114 1151.74 133.221L1161.38 80.9052C1161.5 80.2157 1162.1 79.7152 1162.8 79.7152H1187.75C1196.96 80.1996 1214.78 86.4001 1212.46 107.327C1210.13 128.253 1196.96 134.454 1190.66 134.938ZM1543.79 104.42C1548.15 33.2119 1481.3 20.1328 1466.77 20.1328H1342.98C1342.29 20.1328 1341.7 20.6209 1341.56 21.2993L1295.64 249.456C1295.46 250.356 1296.15 251.196 1297.07 251.196H1371.14C1371.83 251.196 1372.42 250.721 1372.56 250.055L1385.14 192.756C1385.29 192.089 1385.88 191.614 1386.56 191.614H1447.88C1477.91 190.645 1539.14 171.85 1543.79 104.42ZM1439.16 134.938H1401.67C1400.76 134.938 1400.08 134.114 1400.24 133.221L1409.88 80.9052C1410 80.2157 1410.61 79.7152 1411.31 79.7152H1436.25C1445.46 80.1996 1463.28 86.4001 1460.96 107.327C1458.63 128.253 1445.46 134.454 1439.16 134.938ZM1058.08 21.8644L1047.02 78.5403C1046.89 79.2227 1046.29 79.7152 1045.59 79.7152H939.016C938.311 79.7152 937.708 80.2215 937.585 80.9159L933.738 102.714C933.581 103.604 934.266 104.42 935.17 104.42H1026.12C1027.04 104.42 1027.73 105.259 1027.55 106.158L1016.51 161.381C1016.37 162.06 1015.77 162.549 1015.08 162.549H921.55C920.857 162.549 920.261 163.038 920.125 163.718L914.893 189.876C914.713 190.775 915.401 191.614 916.318 191.614H1026.13C1027.05 191.614 1027.73 192.448 1027.56 193.345L1016.5 250.021C1016.37 250.704 1015.77 251.196 1015.07 251.196H827.662C826.748 251.196 826.061 250.362 826.236 249.465L870.719 21.3079C870.852 20.6254 871.45 20.1328 872.146 20.1328H1056.65C1057.57 20.1328 1058.25 20.967 1058.08 21.8644ZM856.693 20.1328H783.117C782.611 20.1328 782.141 20.3968 781.877 20.8295L746.105 79.4958C746.016 79.641 745.954 79.8005 745.92 79.9672L712.051 249.246C711.735 250.829 713.848 251.671 714.707 250.304L857.924 22.3592C858.532 21.3914 857.836 20.1328 856.693 20.1328ZM655.614 250.064L603.956 21.907C603.75 20.9979 604.441 20.1328 605.373 20.1328H683.759C684.445 20.1328 685.037 20.6126 685.18 21.2836L699.407 88.1502C699.447 88.3379 699.449 88.5317 699.414 88.7204L669.172 250.011C669.043 250.698 668.443 251.196 667.744 251.196H657.032C656.353 251.196 655.764 250.726 655.614 250.064ZM189.136 153.83H152.667C151.548 153.83 150.849 152.617 151.41 151.649L180.064 102.155C180.75 100.97 182.544 101.304 182.757 102.656L190.572 152.15C190.711 153.032 190.029 153.83 189.136 153.83ZM237.592 21.2736L287.815 249.431C288.014 250.337 287.324 251.196 286.396 251.196H212.406C211.699 251.196 211.094 250.687 210.974 249.99L204.124 210.259C204.004 209.562 203.399 209.053 202.692 209.053H114.649C114.133 209.053 113.656 209.326 113.395 209.771L89.5321 250.478C89.2713 250.923 88.7941 251.196 88.2784 251.196H14.6926C13.5553 251.196 12.8588 249.949 13.4555 248.981L154.081 20.8235C154.345 20.3942 154.813 20.1328 155.318 20.1328H236.172C236.855 20.1328 237.445 20.6074 237.592 21.2736Z" stroke="black" stroke-width="5.81292" stroke-linecap="round"/>
</svg>
