<svg width="680" height="250" viewBox="0 0 680 250" fill="none" xmlns="http://www.w3.org/2000/svg">
<path d="M173.392 0H235.813V244.641H173.392V211.538H61.4754L124.212 151.639H173.392V86.6961L0 250V163.619L173.392 0ZM304.224 64.3128H252.837V0.315278H476.986L409.52 64.3128H371.374V244.956H304.224V64.3128Z" fill="#C32328"/>
<path d="M492.434 59.2658H617.592L679.697 0.3125H492.434L430.328 59.2658V244.953H572.825C581.652 244.953 590.164 242.746 598.045 238.648C605.927 234.55 612.863 228.875 618.537 221.624C624.527 214.373 629.256 206.492 632.724 197.349C635.876 188.207 637.768 178.434 637.768 168.345C637.768 156.996 636.192 146.592 632.724 137.45C629.571 128.307 624.842 120.426 618.853 113.806C612.863 107.185 605.927 102.141 598.045 98.6731C590.164 95.2053 581.652 93.3138 572.51 93.3138H505.99V152.267H560.215C565.259 152.267 568.726 153.843 571.564 156.996C574.401 160.149 575.662 163.932 575.662 169.291C575.662 172.444 575.032 175.596 573.771 178.118C572.51 180.64 570.933 182.532 568.411 184.108C566.204 185.685 563.367 186.315 560.215 186.315H492.434V59.2658Z" fill="#C32328"/>
</svg>
