<svg width="933" height="250" viewBox="0 0 933 250" fill="none" xmlns="http://www.w3.org/2000/svg">
<path fill-rule="evenodd" clip-rule="evenodd" d="M906.824 78.7267C889.192 64.7227 869.716 60.2223 849.701 59.5759C830.74 58.8817 812.785 62.281 800.192 64.8663C792.674 66.4343 784.941 68.2416 770.421 72.5865C770.421 82.8321 770.314 119.638 770.314 119.638C770.314 119.638 779.459 112.229 787.874 108.41C806.692 99.8644 827.652 96.4411 845.332 98.9427C866.52 101.899 876.455 116.059 876.455 129.883C847.726 125.73 816.986 126.771 793.129 133.689C757.11 144.127 743.596 172.936 747.151 199.64C750.503 224.775 774.372 247.816 815.849 247.816C845.847 247.816 870.554 227.564 877.64 214.422L878.143 242.992H931.842L932.321 139.937C932.321 108.937 922.745 91.2944 906.86 78.7147L906.824 78.7267ZM843.644 200.131C827.58 206.115 805.447 205.445 800.85 191.094C796.984 178.993 808.224 165.336 831.734 161.267C843.788 159.196 861.037 158.789 875.306 162.463C874.265 171.584 866.616 191.561 843.644 200.155V200.131Z" fill="#76BF44"/>
<path d="M734.976 242.672H685.598L685.179 214.664C668.349 238.746 646.599 248.525 625.004 248.609C590.637 248.729 559.227 222.444 559.227 178.792V64.7734H611.968V163.556C611.968 192.569 623.017 204.622 641.894 202.276C665.907 199.272 680.702 182.467 680.702 163.556V64.7734H734.976V242.672Z" fill="#76BF44"/>
<path fill-rule="evenodd" clip-rule="evenodd" d="M291.811 66.9453L241.535 189.031C234.868 169.857 220.491 141.274 203.493 117.515C199.268 134.356 191.307 154.201 178.547 171.197C191.128 189.738 204.211 220.582 211.501 245.179H269.51L348.215 66.9573L291.811 66.9453Z" fill="#76BF44"/>
<path fill-rule="evenodd" clip-rule="evenodd" d="M470.039 80.8975C452.395 66.8935 432.931 62.405 412.905 61.7467C393.979 61.0884 376 64.1406 363.407 67.073L342.435 115.477C345.231 113.699 348.115 112.065 351.077 110.581C368.885 101.854 388.87 98.5648 408.535 101.125C429.723 104.07 439.658 118.23 439.658 132.066C410.929 127.913 380.189 128.954 356.32 135.86C320.313 146.297 306.799 175.119 310.354 201.811C313.706 226.946 337.563 249.999 379.052 249.999C409.05 249.999 433.757 229.735 440.843 216.605L441.346 245.175H495.033L495.524 142.12C495.524 111.108 485.948 93.4652 470.063 80.8855L470.039 80.8975ZM406.86 202.313C390.795 208.298 368.662 207.628 364.065 193.289C360.187 181.188 371.427 167.531 394.949 163.461C406.991 161.379 424.252 160.972 438.521 164.658C437.48 173.767 429.831 193.743 406.86 202.337V202.313Z" fill="#76BF44"/>
<path d="M169.316 179.788C158.808 191.251 145.381 199.641 130.472 204.061C105.968 211.458 82.8297 205.737 70.5241 192.631C64.5777 186.756 60.8115 179.03 59.8465 170.727C106.399 177.238 154.987 171.924 175.744 147.985C189.306 132.425 192.646 107.218 177.145 86.5354C163.606 68.4739 132.315 56.4208 95.1352 60.2031C46.3798 65.1584 2.54414 98.4328 0.102173 152.151C-2.39964 207.113 41.3163 247.809 101.192 247.809C139.498 247.809 171.279 234.906 187.224 218.484C182.116 205.196 176.117 192.268 169.268 179.788H169.316ZM90.9695 99.8213C107.034 93.8367 129.167 94.5069 133.764 108.846C137.654 120.935 126.45 134.616 102.94 138.673C90.8977 140.756 73.6364 141.163 59.3677 137.476C60.4091 128.356 68.0582 108.379 91.0294 99.7854L90.9695 99.8213Z" fill="#F58220"/>
<path d="M135.895 27.447C128.737 20.0974 120.468 13.9178 111.392 9.13404C99.1078 2.74856 85.3924 -0.383233 71.5541 0.0374201C64.5275 0.204989 55.4779 1.23434 48.7266 3.52047C52.2459 21.7735 68.2024 35.7177 84.6378 42.588C117.125 56.1252 151.097 51.8403 152.522 51.6607C149.577 43.6413 141.677 33.4316 135.859 27.447H135.895Z" fill="#76BF44"/>
<path fill-rule="evenodd" clip-rule="evenodd" d="M532.512 203.199C546.577 203.199 557.973 213.182 557.973 225.51C557.973 237.838 546.577 247.809 532.512 247.809C518.447 247.809 507.051 237.826 507.051 225.498C507.051 213.17 518.447 203.188 532.512 203.188V203.199Z" fill="#76BF44"/>
</svg>
