<svg width="207" height="251" viewBox="0 0 207 251" fill="none" xmlns="http://www.w3.org/2000/svg">
<path d="M63.3093 51.4283H63.6645C64.0197 51.0717 64.3749 51.0717 64.0197 50.3584C65.0853 49.2885 65.7957 47.5053 65.0853 45.7222C64.7301 45.0089 64.0197 45.0089 63.3093 45.0089C62.9541 45.0089 62.2436 45.0089 61.8884 45.0089V44.6523L49.4563 39.6594C48.7459 37.163 47.6803 34.6665 46.6147 32.5267C46.2595 27.1772 41.6419 23.6109 41.6419 18.2614C42.3523 17.1915 43.0627 17.5481 43.7731 17.5481C44.1283 17.5481 44.8387 17.5481 45.1939 17.5481C45.9043 17.1915 46.2595 16.8348 45.9043 15.7649C46.2595 15.7649 46.2595 15.0517 46.6147 15.0517C46.6147 13.6251 46.6147 12.5552 48.0355 12.1986C47.3251 10.7721 46.6147 9.70217 46.6147 8.63227C47.6803 6.8491 46.2595 4.35266 46.2595 2.56949C44.4835 1.85622 42.3523 0.429688 40.221 0.429688C39.1554 0.429688 38.445 0.786321 37.3794 1.49959C35.6034 3.28276 34.5378 5.42256 34.893 7.20573C34.893 11.1287 35.6034 11.1287 35.9586 13.6251C35.2482 13.9818 35.2482 15.4083 34.1826 15.0517C32.7618 16.8348 30.9857 18.9746 29.5649 20.7578C24.5921 25.0374 17.8432 29.317 17.1328 36.4497C17.488 41.7992 17.8432 47.1487 17.488 52.8549C17.8432 52.8549 17.8432 52.8549 18.1984 52.8549C18.5536 52.8549 18.9088 52.8549 19.264 52.8549V53.2115C19.264 53.5681 19.264 53.9248 19.264 53.9248H19.6192C20.3296 55.7079 19.6192 58.2044 20.3296 59.9875C20.6848 60.7008 20.6848 61.7707 21.7505 62.1273C21.7505 61.7707 21.7505 61.7707 21.7505 61.4141L22.4609 62.8406C22.8161 63.1972 23.1713 62.484 23.1713 62.1273C23.5265 62.484 23.1713 62.8406 23.5265 63.1972C23.8817 63.5539 23.8817 63.9105 24.2369 63.5539L24.5921 58.9176C25.3025 60.3442 24.9473 62.1273 25.3025 63.5539C26.0129 62.8406 25.6577 61.7707 25.6577 60.7008C25.3025 57.8477 25.6577 55.7079 24.5921 53.2115C24.9473 52.8549 24.9473 52.4982 24.9473 52.1416C25.3025 52.1416 25.3025 51.785 25.6577 51.785C26.3681 46.7921 26.0129 41.0859 26.3681 36.4497L28.1441 35.0232C29.5649 42.1558 28.4993 49.2885 27.4337 56.4212C27.7889 57.8477 28.1441 59.2743 27.7889 60.7008V63.1972H28.1441V62.1273C28.1441 64.6238 27.4337 67.8335 29.2097 69.26C29.2097 76.036 29.2097 82.8121 28.1441 89.2315C24.2369 99.2172 17.8432 108.846 18.5536 119.902H23.5265L23.8817 118.832C28.1441 119.545 33.117 120.615 36.669 117.762C36.3138 115.266 32.7618 116.336 30.9857 115.266C30.2753 114.909 29.2097 114.552 28.4993 113.483H27.7889C28.8545 108.49 31.3409 103.853 33.8274 99.5739C40.221 91.3713 39.8658 80.6723 40.9314 70.3299C41.2866 69.9733 41.6419 69.9733 41.9971 69.9733C42.3523 69.9733 42.7075 69.9733 43.0627 69.9733C44.4835 69.9733 45.9043 69.9733 45.5491 68.5467C51.5875 68.9034 56.9156 72.1131 62.9541 72.8263C62.9541 73.5396 62.5989 73.8962 62.2436 74.6095C62.2436 76.3927 62.2436 77.8192 61.8884 79.2458V80.3157C61.5332 88.1616 61.8884 92.7978 63.3093 100.287H67.5717L67.9269 99.2172C71.8341 98.8606 76.807 99.5739 80.7142 96.7208C80.0038 94.581 76.807 96.0075 75.031 94.9376C73.9654 94.581 72.5446 93.8677 72.1893 92.7978C71.8341 84.9519 72.1893 76.3927 73.6102 68.5467C67.5717 60.3442 59.0468 58.561 51.2323 54.638C51.5875 53.5681 51.2323 53.9248 51.5875 53.2115C49.4563 53.2115 48.3907 51.4283 46.6147 52.1416C46.2595 50.0018 45.9043 47.862 46.6147 45.7222C47.3251 46.0788 47.6803 46.4354 48.3907 47.1487C52.298 48.5752 56.5604 48.9319 60.4676 50.715L61.8884 49.6451" fill="white"/>
<path d="M0.785156 204.075H47.672V120.266H0.785156V204.075ZM37.3711 185.173C36.6607 186.956 34.8847 188.026 32.7535 189.453C30.6222 190.522 27.7806 191.236 24.5838 191.236C21.387 191.236 18.5453 190.522 16.0589 189.453C13.5725 188.026 12.1517 186.6 11.4413 184.46C10.7309 182.32 10.3757 179.823 10.3757 176.257V173.047H22.0974V178.397C22.0974 180.18 22.0974 181.25 22.4526 181.963C22.8078 182.32 23.163 182.677 24.2286 182.677C24.939 182.677 25.6494 182.32 26.0046 181.607C26.3598 180.893 26.715 179.823 26.715 178.754C26.715 175.9 26.3598 174.117 25.6494 173.047C24.939 171.978 22.8078 170.551 19.9661 168.768C16.7693 166.628 14.6381 165.201 13.9277 164.132C12.5069 163.418 11.4413 161.992 11.0861 160.565C10.3757 158.782 10.0204 156.642 10.0204 154.146C10.0204 150.579 10.3757 147.726 11.4413 145.943C12.5069 144.16 13.9277 143.09 16.0589 142.02C18.1901 140.95 20.6766 140.594 23.5182 140.594C26.715 140.594 29.5566 140.95 31.6879 142.02C33.8191 143.09 35.5951 144.517 36.3055 145.943C37.0159 147.726 37.3711 150.223 37.3711 154.146V155.929H25.6494V152.363C25.6494 150.579 25.6494 149.51 25.2942 149.153C24.939 148.796 24.5838 148.44 23.8734 148.44C23.163 148.44 22.4526 148.796 22.0974 149.51C21.7422 150.223 21.7422 151.293 21.7422 152.363C21.7422 154.146 22.0974 155.216 22.4526 155.929C22.8078 156.642 24.2286 157.712 26.0046 158.782C31.6879 161.992 35.2399 164.845 36.6607 166.985C38.0815 169.124 38.7919 172.334 38.7919 177.327C38.4367 180.893 38.0815 183.39 37.3711 185.173Z" fill="white"/>
<path d="M53.7031 204.07H100.59V101.359H53.7031V204.07ZM91.3547 150.575H83.5402V190.518H70.3977V150.575H62.5832V140.589H90.9995V150.575H91.3547Z" fill="white"/>
<path d="M106.637 204.052H153.524V81.7266H106.637V204.052ZM141.802 190.857H120.134V140.571H140.736V150.557H131.856V160.186H140.026V169.815H131.856V180.871H141.447V190.857H141.802Z" fill="white"/>
<path d="M181.941 149.156V161.995C182.297 161.995 182.652 161.995 183.007 161.995C184.073 161.995 185.138 161.638 185.493 161.282C185.849 160.569 186.204 159.499 186.204 157.715V153.436C186.204 151.653 185.849 150.583 185.493 150.226C184.783 149.513 183.717 149.156 181.941 149.156Z" fill="white"/>
<path d="M159.559 204.055H206.445V62.8281H159.559V204.055ZM196.855 159.119C196.855 162.329 196.5 164.469 195.789 166.252C195.079 167.678 194.013 168.748 192.237 169.462C190.461 170.175 188.33 170.532 185.133 170.532H181.581V190.86H169.504V140.574H181.581C185.133 140.574 187.975 140.931 189.751 141.288C191.527 142.001 192.948 142.714 194.013 143.784C195.079 144.854 195.789 146.28 196.145 147.707C196.5 149.134 196.5 151.63 196.5 154.84L196.855 159.119Z" fill="white"/>
<path d="M10.0204 214.414H0.785156V249.364H10.0204V214.414Z" fill="white"/>
<path d="M32.0437 214.414V221.547H26.7157V249.364H17.4804V221.547H12.1523V214.414H32.0437Z" fill="white"/>
<path d="M57.9748 214.414L63.3028 249.364H53.7123L53.3571 242.945H50.1603L49.4499 249.364H39.8594L44.477 214.414H57.9748ZM53.0019 236.882C52.6467 232.959 51.9363 227.966 51.5811 222.26C50.5155 229.036 50.1603 233.672 49.8051 236.882H53.0019Z" fill="white"/>
<path d="M86.0346 229.739H76.7993V223.676C76.7993 221.893 76.7993 220.823 76.4441 220.466C76.0889 220.11 75.7337 219.753 75.0233 219.753C74.3129 219.753 73.6025 220.11 73.6025 220.466C73.2473 220.823 73.2473 222.249 73.2473 224.033V240.438C73.2473 242.221 73.2473 243.291 73.6025 243.647C73.9577 244.004 74.3129 244.361 75.0233 244.361C75.7337 244.361 76.0889 244.004 76.4441 243.647C76.7993 243.291 76.7993 241.864 76.7993 240.081V235.445H86.0346V236.871C86.0346 240.438 85.6794 242.934 85.3242 244.717C84.969 246.144 83.5482 247.57 81.7722 248.64C79.9961 249.71 77.8649 250.424 75.3785 250.424C72.5369 250.424 70.4056 250.067 68.6296 248.997C66.8536 247.927 65.788 246.857 65.0776 245.074C64.3672 243.291 64.3672 240.794 64.3672 237.228V227.242C64.3672 224.746 64.3672 222.963 64.7224 221.536C64.7224 220.11 65.4328 219.04 66.1432 217.97C66.8536 216.9 68.2744 215.83 69.6952 215.117C71.1161 214.404 72.8921 214.047 75.0233 214.047C77.8649 214.047 79.9961 214.404 81.7722 215.473C83.5482 216.543 84.6138 217.97 85.3242 219.396C86.0346 220.823 86.0346 223.319 86.0346 226.529V229.739Z" fill="white"/>
<path d="M105.213 214.414L110.541 249.364H101.306L100.951 242.945H97.754L97.0436 249.364H87.4531L92.0708 214.414H105.213ZM100.24 236.882C99.8852 232.959 99.1748 227.966 98.8196 222.26C97.754 229.036 97.3988 233.672 97.0436 236.882H100.24Z" fill="white"/>
<path d="M111.957 214.414H118.706C122.968 214.414 126.165 214.771 127.586 215.127C129.007 215.484 130.427 216.197 131.138 217.267C131.848 218.337 132.559 219.05 132.559 220.477C132.914 221.547 132.914 223.687 132.914 227.253V239.022C132.914 242.232 132.914 244.371 132.559 245.441C132.203 246.511 131.848 247.224 131.138 247.938C130.427 248.651 129.362 249.008 128.296 249.364C127.231 249.721 125.454 249.721 123.323 249.721H111.602L111.957 214.414ZM121.192 220.477V243.658C122.613 243.658 123.323 243.301 123.678 242.945C124.034 242.588 124.034 241.162 124.034 238.665V224.756C124.034 223.33 124.034 222.26 124.034 221.903C124.034 221.547 123.678 221.19 123.323 220.833C122.968 220.477 122.258 220.477 121.192 220.477Z" fill="white"/>
<path d="M136.836 214.414H152.11V221.547H146.071V227.966H151.754V234.742H146.071V242.232H152.465V249.364H136.836V214.414Z" fill="white"/>
<path d="M183.713 214.414V249.364H175.543V225.826L172.346 249.364H166.663L163.111 226.183V249.364H154.941V214.414H166.663C167.018 216.554 167.374 219.05 167.729 221.903L169.15 230.819L171.281 214.414H183.713Z" fill="white"/>
<path d="M206.796 214.414L200.047 236.525V249.008H191.523V236.525L185.129 214.414H193.654C195.075 221.19 195.785 225.826 195.785 228.323C196.14 224.4 197.206 220.12 198.271 214.414H206.796Z" fill="white"/>
</svg>
