<svg width="701" height="250" viewBox="0 0 701 250" fill="none" xmlns="http://www.w3.org/2000/svg">
<path fill-rule="evenodd" clip-rule="evenodd" d="M306.426 42.3281C306.426 42.3281 306.426 42.3281 321.169 42.3281C326.587 42.3281 329.233 44.9743 329.233 51.0226C329.233 51.0226 329.233 51.0226 329.233 72.1919C329.233 72.1919 329.233 72.1919 358.089 72.1919C358.089 72.1919 358.089 72.1919 358.089 51.0226C358.089 44.9743 360.735 42.3281 366.784 42.3281C366.784 42.3281 366.784 42.3281 380.897 42.3281C380.897 42.3281 380.897 42.3281 380.897 56.3149C380.897 56.3149 380.897 56.3149 374.848 56.3149L374.218 56.945C374.218 56.945 374.218 56.945 374.218 116.672C374.218 116.672 374.218 116.672 358.089 116.672C358.089 116.672 358.089 116.672 358.089 86.8087C358.089 86.8087 358.089 86.8087 329.233 86.8087C329.233 86.8087 329.233 86.8087 329.233 116.672C329.233 116.672 329.233 116.672 313.104 116.672C313.104 116.672 313.104 116.672 313.104 56.945C313.104 56.945 313.104 56.3149 312.474 56.3149C312.474 56.3149 312.474 56.3149 306.426 56.3149C306.426 56.3149 306.426 56.3149 306.426 42.3281Z" fill="#ED1C24"/>
<path fill-rule="evenodd" clip-rule="evenodd" d="M423.101 41.0781H423.479V56.451L423.101 56.325C411.004 56.325 401.679 66.2796 401.679 78.8803C401.679 92.1111 411.004 102.822 423.101 102.822L423.479 102.696V117.943L423.101 118.069C401.679 118.069 384.164 100.806 384.164 78.8803C384.164 57.7111 401.679 41.0781 423.101 41.0781Z" fill="#ED1C24"/>
<path fill-rule="evenodd" clip-rule="evenodd" d="M423.477 41.0781L430.911 41.8342C448.678 45.2364 462.035 60.3573 462.035 78.8803C462.035 98.0335 448.678 113.658 430.911 117.187L423.477 117.943V102.696L431.667 100.932C439.606 97.2774 445.276 88.8349 445.276 78.8803C445.276 69.4298 439.606 61.4913 431.667 58.0891L423.477 56.451V41.0781Z" fill="#ED1C24"/>
<path fill-rule="evenodd" clip-rule="evenodd" d="M465.32 42.3281C465.32 42.3281 465.32 42.3281 487.876 42.3281H498.586V56.3149H497.578C496.192 56.3149 493.546 56.3149 488.128 56.3149C488.128 56.3149 488.128 56.3149 488.128 71.5618C488.128 71.5618 488.128 71.5618 492.664 71.5618H498.586V84.7926H495.184C493.42 84.7926 491.152 84.7926 488.128 84.7926C488.128 84.7926 488.128 84.7926 488.128 101.426C488.128 102.056 488.128 102.056 488.884 102.056C488.884 102.056 488.884 102.056 493.672 102.056H498.586V116.672H497.2C494.68 116.672 489.892 116.672 480.189 116.672C474.771 116.672 472.125 114.026 472.125 108.104V56.3149C472.125 56.3149 472.125 56.3149 465.32 56.3149C465.32 56.3149 465.32 56.3149 465.32 42.3281Z" fill="#ED1C24"/>
<path fill-rule="evenodd" clip-rule="evenodd" d="M498.586 42.3281H498.838C513.707 42.3281 522.401 50.3926 522.401 62.3633C522.401 69.5457 518.999 74.208 515.723 77.6102C521.771 80.2564 525.678 86.8087 525.678 94.1172C525.678 108.104 514.967 116.672 499.594 116.672C499.594 116.672 499.594 116.672 499.342 116.672H498.586V102.056H500.224C505.642 102.056 508.919 98.7794 508.919 93.4871C508.919 88.1948 505.642 84.7926 500.224 84.7926C500.224 84.7926 500.224 84.7926 498.712 84.7926H498.586V71.5618H498.838C503.626 71.5618 506.272 68.2857 506.272 63.6234C506.272 58.9611 503.626 56.3149 498.838 56.3149C498.838 56.3149 498.838 56.3149 498.712 56.3149H498.586V42.3281Z" fill="#ED1C24"/>
<path fill-rule="evenodd" clip-rule="evenodd" d="M556.547 42.3281C556.547 42.3281 556.547 42.3281 563.351 42.3281H564.611V63.6234C563.981 65.0095 563.225 66.8996 563.225 68.9157C563.225 68.9157 563.225 68.9157 557.933 84.1626C557.933 84.1626 557.933 84.1626 563.603 84.1626H564.611V98.1494H560.957C558.941 98.1494 556.547 98.1494 553.901 98.1494C553.901 98.1494 553.901 98.1494 549.238 110.12C547.852 114.656 545.206 116.672 539.788 116.672C539.788 116.672 539.788 116.672 529.707 116.672C529.707 116.672 529.707 116.672 529.707 102.056C529.707 102.056 529.707 102.056 533.109 102.056C534.495 102.056 534.495 102.056 535.125 101.426C535.125 101.426 535.125 101.426 556.547 42.3281Z" fill="#ED1C24"/>
<path fill-rule="evenodd" clip-rule="evenodd" d="M564.613 42.3281H572.678C572.678 42.3281 572.678 42.3281 594.099 101.426C594.729 102.056 594.729 102.056 596.115 102.056C596.115 102.056 596.115 102.056 598.762 102.056C598.762 102.056 598.762 102.056 598.762 116.672C598.762 116.672 598.762 116.672 589.437 116.672C584.019 116.672 581.372 114.656 579.986 109.364C579.986 109.364 579.986 109.364 575.324 98.1494C575.324 98.1494 575.324 98.1494 566.251 98.1494H564.613V84.1626H571.292C571.292 84.1626 571.292 84.1626 565.999 68.9157C565.999 66.8996 565.243 65.0095 564.613 63.6234V42.3281Z" fill="#ED1C24"/>
<path fill-rule="evenodd" clip-rule="evenodd" d="M306.426 137.867C306.426 137.867 306.426 137.867 364.768 137.867C370.186 137.867 373.462 140.639 373.462 146.562C373.462 146.562 373.462 146.562 373.462 196.965C373.462 197.595 373.462 197.595 374.218 197.595C374.218 197.595 374.218 197.595 379.511 197.595C379.511 197.595 379.511 197.595 379.511 212.212C379.511 212.212 379.511 212.212 365.524 212.212C359.475 212.212 356.703 209.565 356.703 203.643C356.703 203.643 356.703 203.643 356.703 152.61C356.703 152.61 356.703 151.854 356.073 151.854C356.073 151.854 356.073 151.854 329.233 151.854C329.233 151.854 329.233 151.854 329.233 212.212C329.233 212.212 329.233 212.212 313.104 212.212C313.104 212.212 313.104 212.212 313.104 151.854C313.104 151.854 313.104 151.854 306.426 151.854C306.426 151.854 306.426 151.854 306.426 137.867Z" fill="#ED1C24"/>
<path fill-rule="evenodd" clip-rule="evenodd" d="M421.842 136.586H422.094V151.959L421.842 151.833C409.619 151.833 400.294 161.787 400.294 174.388C400.294 187.619 409.619 198.33 421.842 198.33L422.094 198.204V213.45L421.842 213.576C400.294 213.576 383.535 196.313 383.535 174.388C383.535 153.219 400.294 136.586 421.842 136.586Z" fill="#ED1C24"/>
<path fill-rule="evenodd" clip-rule="evenodd" d="M422.098 136.586L429.784 137.342C447.803 140.744 460.656 155.865 460.656 174.388C460.656 193.541 447.803 209.166 429.784 212.694L422.098 213.45V198.204L430.666 196.439C438.605 192.785 443.897 184.343 443.897 174.388C443.897 164.938 438.605 156.999 430.666 153.597L422.098 151.959V136.586Z" fill="#ED1C24"/>
<path fill-rule="evenodd" clip-rule="evenodd" d="M464.062 137.867C464.062 137.867 464.062 137.867 478.805 137.867C484.224 137.867 486.87 140.639 486.87 146.562C486.87 146.562 486.87 146.562 486.87 196.965C486.87 197.595 486.87 197.595 487.5 197.595C487.5 197.595 487.5 197.595 506.905 197.595C506.905 197.595 506.905 197.595 506.905 137.867C506.905 137.867 506.905 137.867 523.034 137.867C523.034 137.867 523.034 137.867 523.034 197.595C523.034 197.595 523.034 197.595 542.566 197.595C543.196 197.595 543.196 197.595 543.196 196.965C543.196 196.965 543.196 196.965 543.196 146.562C543.196 140.639 545.842 137.867 551.26 137.867C551.26 137.867 551.26 137.867 566.003 137.867C566.003 137.867 566.003 137.867 566.003 151.854C566.003 151.854 566.003 151.854 559.955 151.854C559.199 151.854 559.199 152.61 559.199 152.61C559.199 152.61 559.199 152.61 559.199 203.643C559.199 209.565 556.553 212.212 551.26 212.212C551.26 212.212 551.26 212.212 479.436 212.212C473.387 212.212 470.741 209.565 470.741 203.643C470.741 203.643 470.741 203.643 470.741 152.61C470.741 152.61 470.741 151.854 470.111 151.854C470.111 151.854 470.111 151.854 464.062 151.854C464.062 151.854 464.062 151.854 464.062 137.867Z" fill="#ED1C24"/>
<path fill-rule="evenodd" clip-rule="evenodd" d="M578.731 137.867C578.731 137.867 578.731 137.867 629.009 137.867C635.057 137.867 637.073 140.639 637.073 145.932C637.073 145.932 637.073 145.932 637.073 158.532H622.33C622.33 158.532 622.33 158.532 622.33 152.61C622.33 151.854 622.33 151.854 621.574 151.854C621.574 151.854 621.574 151.854 612.25 151.854C612.25 151.854 612.25 151.854 612.25 212.212C612.25 212.212 612.25 212.212 596.12 212.212C596.12 212.212 596.12 212.212 596.12 151.854C596.12 151.854 596.12 151.854 586.796 151.854C586.04 151.854 586.04 151.854 586.04 152.61C586.04 152.61 586.04 152.61 586.04 158.532C586.04 158.532 586.04 158.532 571.297 158.532C571.297 158.532 571.297 158.532 571.297 145.932C571.297 140.639 573.313 137.867 578.731 137.867Z" fill="#ED1C24"/>
<path fill-rule="evenodd" clip-rule="evenodd" d="M657.855 137.867C657.855 137.867 657.855 137.867 664.66 137.867H665.92V159.162C665.164 160.549 664.534 162.439 664.534 164.455C664.534 164.455 664.534 164.455 659.115 179.702C659.115 179.702 659.115 179.702 664.786 179.702H665.92V193.688H662.266C660.124 193.688 657.855 193.688 655.083 193.688C655.083 193.688 655.083 193.688 650.421 204.903C649.161 210.195 646.389 212.212 641.096 212.212C641.096 212.212 641.096 212.212 631.016 212.212C631.016 212.212 631.016 212.212 631.016 197.595C631.016 197.595 631.016 197.595 634.418 197.595C635.678 197.595 635.678 197.595 636.434 196.965C636.434 196.965 636.434 196.965 657.855 137.993V137.867Z" fill="#ED1C24"/>
<path fill-rule="evenodd" clip-rule="evenodd" d="M665.922 137.867H673.86C673.86 137.867 673.86 137.867 695.408 196.965C696.038 197.595 696.038 197.595 697.424 197.595H700.07C700.07 197.595 700.07 197.595 700.07 212.212C700.07 212.212 700.07 212.212 690.745 212.212C685.327 212.212 682.681 210.195 681.295 204.903C681.295 204.903 681.295 204.903 676.633 193.688C676.633 193.688 676.633 193.688 667.56 193.688H665.922V179.702H672.6C672.6 179.702 672.6 179.702 667.182 164.455C667.182 162.439 666.552 160.549 665.922 159.162V137.867Z" fill="#ED1C24"/>
<path fill-rule="evenodd" clip-rule="evenodd" d="M203.096 73.9531C203.852 73.701 204.86 74.2051 205.868 75.5912C205.868 75.5912 205.868 75.5912 251.483 119.946C254.129 122.592 254.129 126.624 251.483 128.64C251.483 128.64 251.483 128.64 205.868 173.751C204.86 175.011 203.852 175.389 203.096 175.011C202.34 174.633 201.836 173.373 201.836 171.735V76.8512C201.836 75.2131 202.34 74.2051 203.096 73.9531Z" fill="#ED1C24"/>
<path fill-rule="evenodd" clip-rule="evenodd" d="M125.088 0H128.365L131.389 1.26007C131.389 1.26007 131.389 1.26007 178.39 47.7568C180.406 50.403 179.65 52.2931 176.374 52.2931C176.374 52.2931 176.374 52.2931 156.843 52.2931C153.566 52.2931 150.794 55.0652 150.794 58.3414C150.794 58.3414 150.794 58.3414 150.794 92.8675C150.794 96.1437 148.148 98.7898 144.116 98.7898C144.116 98.7898 144.116 98.7898 109.967 98.7898C106.565 98.7898 103.919 96.1437 103.919 92.8675C103.919 92.8675 103.919 92.8675 103.919 58.3414C103.919 55.0652 101.273 52.2931 97.8707 52.2931H77.0793C73.6771 52.2931 73.047 50.403 75.0632 47.7568C75.0632 47.7568 75.0632 47.7568 122.064 1.26007L125.088 0Z" fill="#ED1C24"/>
<path fill-rule="evenodd" clip-rule="evenodd" d="M51.6319 72.968C52.3879 73.472 52.892 74.6061 52.892 76.2442V173.018C52.892 174.782 52.3879 175.79 51.6319 176.042C50.7498 176.42 49.6157 176.042 48.2297 175.034C48.2297 175.034 48.2297 175.034 1.98463 128.663C-0.661543 126.647 -0.661543 122.615 1.98463 119.969C1.98463 119.969 1.98463 119.969 48.2297 74.228C49.6157 72.968 50.7498 72.59 51.6319 72.968Z" fill="#ED1C24"/>
<path fill-rule="evenodd" clip-rule="evenodd" d="M109.979 149.195C109.979 149.195 109.979 149.195 144.127 149.195C148.159 149.195 150.932 151.841 150.932 155.244C150.932 155.244 150.932 155.244 150.932 191.66C150.932 195.692 153.578 198.338 156.854 198.338H174.999C178.401 198.338 179.662 200.228 177.015 202.244C177.015 202.244 177.015 202.244 131.4 247.985C130.014 249.371 128.376 250.001 126.738 250.001C125.1 250.001 123.336 249.371 122.076 247.985C122.076 247.985 122.076 247.985 76.4608 202.244C73.6886 200.228 75.0747 198.338 78.3509 198.338C78.3509 198.338 78.3509 198.338 97.8822 198.338C101.284 198.338 103.931 195.692 103.931 191.66C103.931 191.66 103.931 191.66 103.931 155.244C103.931 151.841 106.577 149.195 109.979 149.195Z" fill="#ED1C24"/>
</svg>
