<svg width="851" height="250" viewBox="0 0 851 250" fill="none" xmlns="http://www.w3.org/2000/svg">
<path d="M227.777 250.001V62.9716H266.455V76.7471C275.727 65.0909 290.032 58.2031 307.516 58.2031C343.015 58.2031 370.301 86.0192 370.301 123.637C370.301 160.99 343.28 191.19 306.192 191.19C287.383 191.19 274.402 183.508 266.455 174.501V250.001H227.777ZM269.634 124.697C269.634 142.976 282.879 156.486 300.894 156.486C318.643 156.486 331.889 142.711 331.889 124.167C331.889 106.153 318.643 92.9069 300.629 92.9069C282.879 92.9069 269.634 106.418 269.634 124.697Z" fill="white"/>
<path d="M394.249 186.422V62.9716H432.926V78.0717C440.609 65.8857 453.59 58.9979 470.544 60.0575V94.7613C449.086 94.2315 432.926 104.033 432.926 133.704V186.422H394.249Z" fill="white"/>
<path d="M551.345 191.19C512.138 191.19 482.467 162.05 482.467 124.697C482.467 87.0788 512.403 58.2031 551.61 58.2031C590.552 58.2031 620.488 86.549 620.488 124.167C620.488 161.785 590.552 191.19 551.345 191.19ZM520.88 124.432C520.88 142.976 533.861 156.486 551.61 156.486C569.094 156.486 582.075 142.711 582.075 124.167C582.075 106.153 569.094 92.9069 551.61 92.9069C533.861 92.9069 520.88 106.418 520.88 124.432Z" fill="white"/>
<path d="M644.406 186.422V62.9716H683.084V78.0717C690.502 65.8857 702.953 58.2031 720.172 58.2031C737.391 58.2031 750.372 65.3558 758.32 79.6612C767.592 66.9453 782.162 58.2031 803.09 58.2031C834.88 58.2031 850.245 78.6015 850.245 121.253V186.422H811.567V122.577C811.567 102.444 804.15 92.642 791.169 92.642C776.599 92.642 766.797 105.093 766.797 128.141V186.422H728.119V122.577C728.119 102.444 720.702 92.642 707.456 92.642C692.621 92.642 683.084 105.358 683.084 128.141V186.422H644.406Z" fill="white"/>
<path fill-rule="evenodd" clip-rule="evenodd" d="M203.241 0H0V203.241H203.241V0ZM162.593 42.0501H42.0501V161.191H162.593V42.0501Z" fill="#8A08F8"/>
</svg>
