<svg width="769" height="250" viewBox="0 0 769 250" fill="none" xmlns="http://www.w3.org/2000/svg">
<rect x="418.688" y="74.0234" width="31.5534" height="31.5534" rx="15.7767" fill="white"/>
<path d="M370.508 133.521C365.655 134.861 360.594 135.531 355.325 135.531C350.056 135.531 344.994 134.861 340.141 133.521C335.288 132.227 330.805 130.262 326.691 127.628C322.577 124.947 318.995 121.711 315.945 117.921C312.894 114.131 310.514 109.602 308.804 104.332C307.093 99.0633 306.238 93.3319 306.238 87.1383V38.9531H338.893V88.5249C338.893 93.7017 340.395 97.9771 343.4 101.351C346.45 104.725 350.425 106.412 355.325 106.412C360.224 106.412 364.199 104.725 367.25 101.351C370.3 97.9771 371.826 93.7017 371.826 88.5249V38.9531H404.481V87.1383C404.481 93.3319 403.602 99.0633 401.846 104.332C400.136 109.602 397.755 114.131 394.705 117.921C391.701 121.711 388.118 124.947 383.959 127.628C379.845 130.262 375.361 132.227 370.508 133.521Z" fill="white"/>
<path d="M485.949 132.273L458.91 38.9531H496.418L509.036 94.3487L523.665 38.9531H549.803L564.432 94.3487L577.05 38.9531H614.558L587.588 132.273H548.416L536.769 86.5837L525.121 132.273H485.949Z" fill="white"/>
<path d="M620.94 132.273V38.9531H653.595V132.273H620.94Z" fill="white"/>
<path d="M672.039 132.273V38.9531H699.841L736.309 83.1171V38.9531H768.964V132.273H741.163L704.694 89.0796V132.273H672.039Z" fill="white"/>
<path d="M312.445 169.632H328.232C339.242 169.632 345.067 174.817 345.067 184.428V184.487C345.067 194.098 339.242 199.224 328.232 199.224H321.067V209.943H312.445V169.632ZM336.445 184.487V184.428C336.445 179.826 333.649 177.729 328.232 177.729H321.067V191.069H328.232C333.649 191.069 336.445 189.147 336.445 184.487Z" fill="white"/>
<path d="M416.495 209.943H406.883L398.728 196.894H391.504V209.943H382.883V169.632H399.427C409.737 169.632 415.504 174.817 415.504 183.38V183.438C415.504 189.613 412.534 193.865 407 195.787L416.495 209.943ZM399.427 177.38H391.504V189.496H399.427C404.029 189.496 406.883 187.807 406.883 183.438V183.38C406.883 179.127 404.029 177.38 399.427 177.38Z" fill="white"/>
<path d="M472.639 168.933H472.697C485.571 168.933 493.435 177.554 493.435 189.729V189.787C493.435 202.02 485.571 210.642 472.697 210.642H472.639C459.765 210.642 451.901 202.02 451.901 189.787V189.729C451.901 177.554 459.765 168.933 472.639 168.933ZM472.639 202.603H472.697C480.212 202.603 484.813 197.302 484.813 189.787V189.729C484.813 182.273 480.212 176.972 472.697 176.972H472.639C465.124 176.972 460.522 182.273 460.522 189.729V189.787C460.522 197.302 465.124 202.603 472.639 202.603Z" fill="white"/>
<path d="M527.671 169.632H560.467V177.904H548.351V209.943H539.787V177.904H527.671V169.632Z" fill="white"/>
<path d="M597.951 169.632H625.446V177.671H606.572V185.826H623.232V193.865H606.572V201.904H625.446V209.943H597.951V169.632Z" fill="white"/>
<path d="M696.969 173.826L692.251 180.292C689.571 178.02 686.426 176.972 682.872 176.972H682.814C675.299 176.972 670.697 182.506 670.697 189.729V189.787C670.756 197.127 675.358 202.603 682.814 202.603H682.872C686.833 202.603 689.746 201.38 692.251 199.283L696.969 205.749C693.416 209.011 688.639 210.642 682.872 210.642H682.814C669.882 210.642 662.076 202.02 662.076 189.787V189.729C662.076 177.554 669.882 168.933 682.814 168.933H682.872C688.173 168.933 693.183 170.389 696.969 173.826Z" fill="white"/>
<path d="M731.361 169.632H764.157V177.904H752.041V209.943H743.478V177.904H731.361V169.632Z" fill="white"/>
<path d="M136.509 38.835H21.4767L1.4524 138.956C-5.21882 173.544 8.61259 244.66 95.5058 250L103.4 209.345L136.509 38.835Z" fill="#0969B1"/>
<path d="M259.341 0H144.05L136.509 38.835L103.4 209.345C184.958 209.345 230.824 146.238 237.499 114.684L259.341 0Z" fill="#FFCE00"/>
</svg>
